<?xml version="1.0" encoding="iso-8859-1"?>
<!-- Generator: Adobe Illustrator 17.1.0, SVG Export Plug-In . SVG Version: 6.00 Build 0)  -->
<!DOCTYPE svg PUBLIC "-//W3C//DTD SVG 1.1//EN" "http://www.w3.org/Graphics/SVG/1.1/DTD/svg11.dtd">
<svg version="1.1" id="Capa_1" xmlns="http://www.w3.org/2000/svg" xmlns:xlink="http://www.w3.org/1999/xlink" x="0px" y="0px"
	 viewBox="0 0 280.076 280.076" style="enable-background:new 0 0 280.076 280.076;" xml:space="preserve">
<g>
	<path d="M236.309,15h-24.565V0h-15v15H148.41V0h-15v15H85.077V0h-15v15H43.768C23.77,15,7.5,31.27,7.5,51.268v221.309
		c0,4.143,3.358,7.5,7.5,7.5h250.077c4.142,0,7.5-3.357,7.5-7.5V51.268C272.577,31.27,256.307,15,236.309,15z M22.5,265.076V51.268
		C22.5,39.541,32.041,30,43.768,30h26.309v10h15V30h48.333v10h15V30h48.333v10h15V30h24.565c11.727,0,21.268,9.541,21.268,21.268
		v32.795H55.038c-4.142,0-7.5,3.357-7.5,7.5s3.358,7.5,7.5,7.5h202.539v166.014H22.5z"/>
	<path d="M164.205,134.166h-48.333c-4.142,0-7.5,3.357-7.5,7.5s3.358,7.5,7.5,7.5h37.016l-32.257,76.245
		c-1.614,3.814,0.17,8.215,3.985,9.829c0.954,0.403,1.944,0.595,2.919,0.595c2.922,0,5.7-1.719,6.911-4.58l36.667-86.667
		c0.98-2.315,0.734-4.969-0.656-7.065C169.067,135.427,166.719,134.166,164.205,134.166z"/>
</g>
<g>
</g>
<g>
</g>
<g>
</g>
<g>
</g>
<g>
</g>
<g>
</g>
<g>
</g>
<g>
</g>
<g>
</g>
<g>
</g>
<g>
</g>
<g>
</g>
<g>
</g>
<g>
</g>
<g>
</g>
</svg>
